# xmcd CD database file
#
# Track frame offsets:
#	150
#	21999
#	43786
#
# Disc length: 658 seconds
#
# Revision: 0
# Processed by: cddbd v1.5PL3 Copyright (c) Steve Scherf et al.
# Submitted via: CDex 1.50
#
DISCID=20029003
DTITLE=新谷良子 - あいのうただから
DYEAR=2003
DGENRE=Anime
TTITLE0=あいのうただから
TTITLE1=あいのうただから(off vocal)
TTITLE2=ランチBOX〜中級編〜
EXTD=YEAR: 2003/09/26
EXTT0=
EXTT1=
EXTT2=
PLAYORDER=
